# xmcd CD database file
#
# Track frame offsets:
#	150
#	23190
#	50593
#	95017
#	143252
#	165079
#	192776
#	210853
#	264086
#
# Disc length: 4185 seconds
#
# Revision: 0
# Processed by: cddbd v1.5.2PL0 Copyright (c) Steve Scherf et al.
# Submitted via: CDex 1.51
#
DISCID=63105709
DTITLE=Sokkan - Chikuzen Shakuhachi Series - Volume 3
DYEAR=2001
DGENRE=New Age
TTITLE0=Shingetsu
TTITLE1=Sokkan
TTITLE2=Taki Ochi
TTITLE3=Echigo Reibo
TTITLE4=Daha
TTITLE5=Ekoh
TTITLE6=Uki Gumo
TTITLE7=Fudaiji Koku
TTITLE8=Ryobo - Version 1
EXTD=YEAR: 2001
EXTT0=
EXTT1=
EXTT2=
EXTT3=
EXTT4=
EXTT5=
EXTT6=
EXTT7=
EXTT8=
PLAYORDER=
